<?xml version="1.0" encoding="UTF-8" standalone="no"?>
<svg
   xmlns:dc="http://purl.org/dc/elements/1.1/"
   xmlns:cc="http://creativecommons.org/ns#"
   xmlns:rdf="http://www.w3.org/1999/02/22-rdf-syntax-ns#"
   xmlns:svg="http://www.w3.org/2000/svg"
   xmlns="http://www.w3.org/2000/svg"
   id="svg8"
   version="1.1"
   viewBox="0 0 26.458333 26.458334"
   height="100"
   width="100">
  <defs
     id="defs2">
    <pattern
       id="EMFhbasepattern"
       patternUnits="userSpaceOnUse"
       width="6"
       height="6"
       x="0"
       y="0" />
  </defs>
  <metadata
     id="metadata5">
    <rdf:RDF>
      <cc:Work
         rdf:about="">
        <dc:format>image/svg+xml</dc:format>
        <dc:type
           rdf:resource="http://purl.org/dc/dcmitype/StillImage" />
        <dc:title></dc:title>
      </cc:Work>
    </rdf:RDF>
  </metadata>
  <g
     id="layer1">
    <g
       transform="matrix(0.63184465,0,0,0.55762059,-120.40166,5.1202927)"
       style="font-style:normal;font-variant:normal;font-weight:400;font-size:26.4583px;line-height:125%;font-family:FontAwesome;text-align:start;letter-spacing:0px;word-spacing:0px;text-anchor:start;fill:#000000;fill-opacity:1;stroke:none;stroke-width:0.264583"
       id="text17"
       aria-label="ï„">
      <path
         id="path29"
         style="font-style:normal;font-variant:normal;font-weight:400;font-size:26.4583px;font-family:FontAwesome;fill:#000000;stroke-width:0.264583"
         d="m 206.20373,22.188374 c 0,-1.048292 -0.84158,-1.889879 -1.88987,-1.889879 -1.03353,0 -1.88988,0.841587 -1.88988,1.889879 0,1.033527 0.85635,1.889878 1.88988,1.889878 1.04829,0 1.88987,-0.856351 1.88987,-1.889878 z m 7.35281,3.041523 c 0,-1.048292 -0.84158,-1.889878 -1.88987,-1.889878 -1.0483,0 -1.88988,0.841586 -1.88988,1.889878 0,1.048292 0.84158,1.889879 1.88988,1.889879 1.04829,0 1.88987,-0.841587 1.88987,-1.889879 z M 203.16221,14.835565 c 0,-1.048292 -0.84158,-1.889878 -1.88988,-1.889878 -1.04829,0 -1.88988,0.841586 -1.88988,1.889878 0,1.048292 0.84159,1.889879 1.88988,1.889879 1.0483,0 1.88988,-0.841587 1.88988,-1.889879 z m 17.74714,7.352809 c 0,-1.048292 -0.85635,-1.889879 -1.88988,-1.889879 -1.04829,0 -1.88987,0.841587 -1.88987,1.889879 0,1.033527 0.84158,1.889878 1.88987,1.889878 1.03353,0 1.88988,-0.856351 1.88988,-1.889878 z M 206.6762,7.4827564 c 0,-1.2992915 -1.06305,-2.3623481 -2.36234,-2.3623481 -1.2993,0 -2.36235,1.0630566 -2.36235,2.3623481 0,1.2992915 1.06305,2.3623482 2.36235,2.3623482 1.29929,0 2.36234,-1.0630567 2.36234,-2.3623482 z m 17.27468,7.3528086 c 0,-1.048292 -0.84159,-1.889878 -1.88988,-1.889878 -1.04829,0 -1.88988,0.841586 -1.88988,1.889878 0,1.048292 0.84159,1.889879 1.88988,1.889879 1.04829,0 1.88988,-0.841587 1.88988,-1.889879 z m -9.4494,-10.3943318 c 0,-1.5650557 -1.26976,-2.8348179 -2.83481,-2.8348179 -1.56506,0 -2.83482,1.2697622 -2.83482,2.8348179 0,1.5650556 1.26976,2.8348178 2.83482,2.8348178 1.56505,0 2.83481,-1.2697622 2.83481,-2.8348178 z m 7.82528,3.0415232 c 0,-1.8160551 -1.49123,-3.3072874 -3.30729,-3.3072874 -1.83082,0 -3.30728,1.4912323 -3.30728,3.3072874 0,1.8308199 1.47646,3.3072876 3.30728,3.3072876 1.81606,0 3.30729,-1.4764677 3.30729,-3.3072876 z" />
    </g>
  </g>
</svg>
